Balkanska pravila (1997) 
http://usnimi.me/slike/tfmfb24da2.jpg

Balkanska pravila je srpski film iz 1997, u kojem glavne uloge tumaÄe Branislav LeÄiÄ‡, Lazar Ristovski, Ana SofrenoviÄ‡, Aleksandar BerÄek, Dragan BjelogrliÄ‡, Tanja BoÅ¡koviÄ‡, Nikola Kojo, Branko VidakoviÄ‡, Danilo Bata StojkoviÄ‡ i Velimir Bata Å½ivojinoviÄ‡. ReÅ¾irao ga je Darko BajiÄ‡, a scenario su napisali on i Radoslav PavloviÄ‡. Premijerno je prikazan u julu 1997. na PaliÄ‡u, u sklopu PaliÄ‡kog filmskog festivala.

Akcioni film o tajnim odnosima jugoslovenske, srpske i hrvatske tajne policije kroz 50 godina. Ovde na Balkanu istina i laÅ¾i su pomeÅ¡ani i to toliko dugo traje da niko ne nalazi razliku. MoÅ¾da je zato ova izmiÅ¡ljena priÄa u stvari istinita.
 
http://usnimi.me/slike/bp0.jpg 
http://usnimi.me/slike/bp1.jpg 
http://usnimi.me/slike/darkcrownb.jpg

Format                           : AVI

Format/Info                      : Audio Video Interleave

File size                        : 1.46 GiB

Duration                         : 1h 53mn

Overall bit rate                 : 1 845 Kbps

Writing application              : VirtualDubMod 1.5.4.1 (build 2178/release)

Writing library                  : VirtualDubMod build 2178/release



Video

ID                               : 0

Format                           : MPEG-4 Visual

Format profile                   : Advanced Simple@L5

Format settings, BVOP            : Yes

Format settings, QPel            : No

Format settings, GMC             : No warppoints

Format settings, Matrix          : Custom

Codec ID                         : XVID

Codec ID/Hint                    : XviD

Duration                         : 1h 53mn

Bit rate                         : 1 712 Kbps

Width                            : 720 pixels

Height                           : 400 pixels

Display aspect ratio             : 16:9

Frame rate                       : 25.000 fps

Color space                      : YUV

Chroma subsampling               : 4:2:0

Bit depth                        : 8 bits

Scan type                        : Progressive

Bits/(Pixel*Frame)               : 0.238

Stream size                      : 1.35 GiB (93%)

Writing library                  : XviD 1.2.1 (UTC 2008-12-04)



Audio

ID                               : 1

Format                           : MPEG Audio

Format version                   : Version 1

Format profile                   : Layer 3

Mode                             : Joint stereo

Mode extension                   : MS Stereo

Codec ID                         : 55

Codec ID/Hint                    : MP3

Duration                         : 1h 53mn

Bit rate mode                    : Variable

Bit rate                         : 120 Kbps

Nominal bit rate                 : 128 Kbps

Channel(s)                       : 2 channels

Sampling rate                    : 48.0 KHz

Stream size                      : 97.4 MiB (7%)

Alignment                        : Aligned on interleaves

Interleave, duration             : 24 ms (0.60 video frame)

Interleave, preload duration     : 529 ms

Writing library                  : LAME3.98r

Encoding settings                : -m j -V 4 -q 2 -lowpass 17 --abr 128